<?xml version="1.0" standalone="no"?>
<!DOCTYPE svg PUBLIC "-//W3C//DTD SVG 20010904//EN"
 "http://www.w3.org/TR/2001/REC-SVG-20010904/DTD/svg10.dtd">
<svg version="1.0" xmlns="http://www.w3.org/2000/svg"
 width="500.000000pt" height="500.000000pt" viewBox="0 0 500.000000 500.000000"
 preserveAspectRatio="xMidYMid meet">
<metadata>
Created by potrace 1.14, written by Peter Selinger 2001-2017
</metadata>
<g transform="translate(0.000000,500.000000) scale(0.100000,-0.100000)"
fill="#000000" stroke="none">
<path d="M5 4987 c-3 -6 -4 -163 -3 -348 l3 -337 220 83 c121 46 228 88 237
94 10 6 22 25 27 43 6 21 9 25 10 13 0 -11 -3 -26 -8 -33 -5 -8 9 -44 36 -97
24 -47 42 -85 39 -85 -3 0 -23 34 -44 75 l-38 76 -234 -230 -235 -230 353 0
c193 -1 352 1 352 4 0 3 -34 69 -75 147 -41 78 -73 143 -71 145 5 5 156 -282
156 -297 0 -7 -107 -10 -365 -8 l-364 3 -1 -517 c0 -285 2 -518 4 -518 3 0 11
6 18 13 47 44 420 389 452 417 l38 35 -38 6 -39 6 34 2 33 1 -32 38 c-33 37
-185 203 -315 342 -133 143 -150 162 -139 159 5 -2 121 -124 257 -271 l247
-268 13 33 c7 17 33 85 57 150 24 64 45 115 47 113 2 -2 -20 -68 -50 -147
l-54 -144 36 -7 c35 -6 35 -6 -7 -4 -35 1 -41 -1 -36 -14 19 -46 36 -102 32
-105 -2 -3 -12 21 -22 51 l-18 57 -61 -59 c-33 -33 -66 -63 -72 -69 -27 -23
-274 -254 -322 -301 -29 -28 -55 -49 -58 -46 -3 3 -5 -190 -5 -429 l1 -434
307 311 c410 416 395 398 388 437 -5 29 -5 29 4 8 6 -13 12 -22 15 -19 4 4 26
53 210 471 43 97 80 176 82 174 2 -2 -35 -91 -82 -198 -47 -107 -111 -252
-142 -324 -31 -71 -62 -135 -69 -140 -8 -7 11 -10 60 -9 l71 1 -58 -6 -58 -6
28 -30 c16 -16 98 -103 182 -193 85 -89 158 -159 162 -155 5 6 60 135 166 391
3 8 -6 12 -28 13 l-34 2 32 6 31 6 -118 307 c-66 169 -124 316 -130 327 -6 13
-23 21 -48 24 -30 3 -27 4 13 4 35 0 130 -25 318 -84 148 -47 270 -83 273 -81
2 3 -29 27 -69 56 -39 28 -148 107 -241 176 -94 69 -173 123 -178 120 -4 -3
-8 1 -9 8 0 11 -216 202 -297 263 l-26 20 31 -55 c17 -30 54 -98 83 -150 29
-52 73 -130 97 -173 25 -43 44 -80 41 -82 -4 -4 -28 39 -176 305 -47 85 -88
159 -92 163 -4 4 -26 -44 -50 -108 -24 -63 -45 -113 -47 -111 -5 5 72 206 96
249 10 19 100 144 198 278 244 332 228 309 206 310 -17 0 -17 1 0 8 15 5 -43
48 -257 191 -152 101 -274 185 -272 187 2 2 128 -79 279 -181 l276 -184 4 56
3 57 2 -58 c2 -50 5 -60 23 -64 13 -4 16 -8 9 -13 -7 -4 67 -95 195 -241 114
-129 209 -235 213 -236 4 -2 43 77 88 175 67 147 78 178 65 183 -9 3 -47 12
-84 19 -37 7 -66 15 -63 17 2 3 38 -2 80 -11 42 -8 81 -13 88 -10 7 3 91 98
186 212 186 223 247 294 237 274 -3 -7 -94 -117 -201 -245 -107 -127 -190
-233 -185 -235 5 -2 66 13 136 33 69 20 128 35 131 33 2 -3 -40 -17 -94 -32
-53 -15 -120 -34 -149 -42 l-52 -15 23 -62 c155 -406 216 -571 213 -574 -2 -2
-32 72 -67 164 -35 93 -89 234 -120 316 l-57 147 -48 -107 c-26 -60 -64 -142
-85 -184 -33 -69 -35 -78 -19 -87 9 -6 110 -94 224 -197 114 -102 209 -184
211 -182 3 2 -5 28 -16 57 -11 29 -19 55 -16 57 2 2 14 -25 27 -61 17 -48 26
-61 31 -48 5 14 7 13 7 -5 1 -22 5 -20 74 24 164 106 288 186 395 253 61 40
112 75 112 80 0 7 -91 125 -303 394 -59 75 -107 140 -107 145 0 5 -19 2 -41
-6 -23 -7 -47 -12 -53 -10 -6 2 10 9 35 15 28 7 150 78 322 186 279 177 317
200 317 193 0 -2 -128 -84 -284 -183 l-284 -179 42 -6 41 -5 -44 -5 -43 -4
138 -175 c234 -295 279 -355 276 -365 -2 -5 -1 -7 3 -3 6 6 336 -189 400 -237
l31 -23 -3 37 c-2 34 -2 34 5 6 l7 -30 135 -5 135 -6 -133 -2 c-126 -2 -134
-3 -139 -23 -4 -13 -8 -16 -13 -9 -4 6 -75 -92 -165 -230 -144 -219 -175 -259
-175 -230 0 6 4 10 8 10 10 0 35 36 201 290 67 101 120 188 118 193 -1 4 -92
64 -202 131 -144 88 -201 118 -204 108 -2 -11 -5 -12 -11 -3 -5 9 -28 -1 -83
-36 -198 -125 -241 -152 -362 -231 -71 -47 -139 -86 -150 -87 -14 -2 -91 62
-245 200 l-225 203 -5 -392 c-4 -341 -3 -392 10 -398 8 -4 182 -146 385 -316
204 -170 371 -308 372 -307 2 1 -54 170 -122 376 -69 205 -125 377 -125 381 0
5 10 7 23 7 18 -1 18 -2 4 -6 -10 -3 -17 -10 -14 -16 2 -7 59 -178 127 -380
67 -203 123 -367 125 -365 2 2 83 136 180 298 98 162 183 301 191 309 11 12
31 8 134 -29 66 -23 119 -44 117 -47 -2 -2 -54 15 -116 36 -61 22 -111 39
-111 37 0 -7 33 -82 97 -219 84 -181 84 -183 61 -232 -10 -22 -16 -29 -12 -15
18 75 17 78 -72 274 -49 107 -90 193 -92 191 -11 -10 -361 -599 -359 -602 2
-1 79 27 172 62 92 36 170 64 172 62 7 -8 -348 -139 -362 -133 -9 3 -15 0 -15
-8 0 -12 -69 -40 -78 -32 -2 2 7 7 19 11 62 20 62 20 -328 344 -207 171 -378
309 -381 307 -2 -3 -26 -89 -52 -193 -27 -103 -49 -182 -49 -175 -1 7 17 84
39 172 22 88 40 164 40 171 0 6 -68 -82 -150 -197 -83 -115 -159 -216 -170
-225 -11 -9 -17 -18 -15 -21 3 -2 -23 -69 -56 -149 -89 -211 -100 -241 -90
-237 5 1 62 53 127 114 66 61 143 133 173 161 l55 50 -70 21 c-38 11 -82 24
-97 28 -15 3 -26 9 -23 11 2 3 45 -7 95 -22 50 -14 95 -24 101 -20 5 3 11 16
11 28 1 18 2 18 6 4 3 -10 -1 -24 -7 -32 -11 -13 -6 -15 31 -17 44 -1 44 -1 7
-5 l-38 -4 -2 -137 -2 -137 -6 135 -5 134 -182 -168 c-101 -93 -183 -173 -183
-177 0 -5 -5 -8 -11 -7 -8 2 -12 -23 -12 -77 l-1 -80 -3 73 c-2 39 -6 72 -8
72 -2 0 -78 -40 -168 -90 -90 -49 -169 -90 -177 -90 -10 0 -10 -4 2 -17 8 -10
59 -92 113 -183 54 -91 123 -205 152 -255 36 -60 50 -91 41 -93 -7 -1 -73 18
-147 43 -74 24 -136 44 -137 42 -5 -5 189 -431 203 -445 11 -11 12 -17 4 -20
-8 -3 -8 -8 -2 -15 14 -18 63 -139 58 -144 -3 -2 -17 28 -32 66 -16 39 -31 71
-35 71 -8 0 -334 -659 -328 -665 2 -2 15 -9 28 -15 24 -10 24 -10 -4 -5 -17 4
-35 14 -42 23 -15 20 -86 223 -80 229 2 2 21 -46 41 -107 21 -61 42 -107 46
-103 8 8 329 651 329 659 0 2 -129 4 -286 4 -269 0 -286 -1 -279 -17 25 -63
145 -417 142 -420 -2 -2 -35 86 -72 194 -37 109 -74 210 -81 225 -10 19 -61
51 -194 121 l-180 94 0 -258 c0 -256 0 -258 23 -274 12 -9 74 -47 137 -84 332
-194 430 -253 430 -258 0 -2 -3 -2 -7 0 -5 2 -87 51 -183 107 -288 170 -392
230 -396 230 -2 0 -4 -99 -4 -219 l0 -220 23 -4 22 -4 -23 -2 -22 -1 2 -237 3
-238 377 -3 376 -2 -4 22 -5 23 10 -22 c10 -23 13 -23 190 -23 l180 0 89 183
c49 100 88 183 86 185 -1 2 -116 -76 -256 -174 -139 -97 -260 -179 -268 -182
-13 -4 483 347 520 368 8 5 13 10 10 13 -3 2 -56 17 -118 32 -62 15 -111 29
-109 32 3 2 52 -8 111 -23 59 -15 109 -24 113 -20 3 3 -10 45 -31 92 -20 48
-35 89 -33 91 3 2 22 -40 44 -93 l40 -96 35 58 c20 33 118 203 218 379 101
176 187 324 191 330 5 5 9 -6 8 -25 0 -23 -3 -29 -7 -18 -6 16 -60 -73 -263
-431 -15 -25 -59 -102 -98 -170 -49 -84 -68 -127 -60 -131 8 -6 8 -9 -1 -12
-8 -2 14 -63 66 -185 44 -100 82 -179 85 -175 4 4 17 35 29 70 13 34 25 61 27
58 2 -2 -9 -38 -25 -80 l-30 -76 257 0 256 1 -55 50 c-30 28 -117 104 -193
170 -130 114 -138 119 -146 97 -4 -13 -19 -51 -31 -86 -13 -34 -25 -61 -27
-59 -2 2 10 41 27 86 16 45 30 84 30 86 0 2 -10 6 -22 8 -15 3 -13 4 7 3 21 0
29 4 27 14 -4 18 31 206 36 192 2 -6 -4 -48 -13 -93 -9 -44 -15 -83 -12 -85 3
-3 84 82 182 188 97 106 181 195 186 196 5 2 8 -37 7 -90 l-2 -93 -5 84 -6 85
-180 -197 c-99 -109 -180 -201 -180 -206 0 -5 83 -82 185 -171 l185 -162 5
239 6 238 -1 -247 0 -248 564 3 564 2 20 58 c10 32 21 56 23 54 2 -2 -5 -29
-15 -60 l-20 -57 432 1 432 0 -360 180 c-197 99 -365 185 -372 191 -10 8 -12
7 -7 -6 3 -9 1 -16 -6 -16 -6 0 -9 -4 -6 -9 6 -9 -24 -105 -30 -98 -2 2 3 23
11 47 8 24 14 44 13 46 -2 1 -69 -61 -149 -139 -217 -211 -227 -215 -24 -10
98 100 177 184 175 187 -3 2 -94 41 -203 87 -108 45 -195 84 -193 86 2 2 93
-34 202 -80 l199 -84 6 56 6 56 1 -58 2 -57 333 2 332 3 -1 25 c0 14 -3 45 -7
70 -4 33 -2 28 9 -18 9 -34 13 -69 10 -77 -5 -13 -54 -15 -332 -15 l-326 0
364 -183 c220 -110 366 -178 370 -172 5 6 8 5 8 -2 0 -10 104 -13 475 -13
l475 0 -1 1138 c0 625 -4 1130 -7 1121 -4 -10 -95 -124 -202 -254 -107 -131
-195 -242 -195 -249 0 -6 89 -111 199 -234 109 -122 197 -225 195 -227 -2 -2
-94 97 -204 220 -109 123 -203 221 -207 219 -4 -3 -8 -1 -8 5 0 6 -14 9 -32 6
l-33 -5 33 10 c17 6 32 12 32 13 0 1 -14 44 -31 96 -16 51 -28 95 -26 97 2 2
16 -35 32 -83 15 -49 30 -91 34 -95 3 -4 40 34 82 85 41 51 130 158 197 239
67 81 122 150 122 153 0 3 -66 6 -147 7 l-148 2 149 6 149 5 -209 165 c-114
91 -218 173 -230 183 -23 17 -23 17 -38 -30 -12 -36 -14 -40 -9 -13 11 69 9
68 150 67 l128 -1 -116 -5 -117 -6 209 -165 c115 -91 218 -171 229 -179 20
-13 20 -11 20 162 l0 176 -98 4 -97 3 97 2 98 2 0 730 c0 402 -2 730 -5 730
-10 0 -535 -275 -535 -280 1 -3 120 -94 265 -203 214 -160 263 -202 262 -220
-2 -27 -452 -733 -472 -741 -14 -5 -289 93 -282 101 2 2 64 -19 137 -47 72
-27 134 -50 136 -50 3 0 2 12 -1 28 -5 26 -5 26 5 3 6 -13 12 -22 14 -20 7 7
456 711 456 715 0 1 -12 5 -27 7 l-28 4 28 2 c15 0 27 4 27 9 -1 11 -520 397
-531 395 -5 -2 -9 2 -9 7 0 6 -8 10 -17 10 -14 0 -15 2 -4 9 11 7 -6 51 -84
219 l-97 210 -67 -76 c-37 -43 -126 -145 -199 -229 -73 -83 -138 -153 -145
-156 -7 -2 11 -3 38 -2 28 1 35 0 18 -2 -18 -2 -33 -5 -33 -7 0 -1 110 -112
245 -246 134 -134 242 -246 240 -248 -2 -3 -114 104 -247 236 -134 132 -247
242 -252 244 -5 2 -42 -94 -82 -212 -40 -118 -73 -210 -73 -205 -1 6 30 105
69 220 38 115 70 211 70 212 0 1 -66 4 -147 6 l-148 3 148 2 c81 1 147 4 147
6 0 2 -9 49 -21 105 -11 57 -19 105 -16 107 2 3 12 -37 22 -88 10 -51 20 -98
24 -105 4 -7 86 80 199 210 l194 222 -44 4 -43 5 50 5 c49 6 49 7 61 51 13 47
17 27 5 -25 -5 -25 11 -67 91 -240 54 -115 98 -215 98 -222 0 -6 39 10 88 36
48 26 169 90 270 142 l183 94 -38 12 c-45 14 -23 17 25 4 l32 -10 0 115 c0
112 0 114 -22 114 -17 0 -19 3 -9 9 10 6 -41 69 -205 247 -120 132 -246 267
-279 302 -61 64 -102 122 -48 67 17 -16 135 -145 263 -285 128 -140 248 -271
266 -290 l34 -35 0 323 0 322 -299 0 -300 0 -4 -22 -4 -23 -2 23 -1 22 -367
-1 c-203 -1 -361 -3 -353 -6 8 -3 53 -55 100 -116 47 -61 166 -215 266 -341
174 -224 216 -280 182 -246 -14 14 -98 121 -421 536 -70 89 -125 151 -135 151
-9 0 -112 -83 -229 -184 -117 -101 -213 -179 -213 -174 0 6 64 88 143 183 78
95 146 179 150 185 6 10 -182 13 -904 13 l-911 0 5 -23 c4 -12 8 -42 11 -67 5
-41 5 -40 -7 11 -8 30 -17 61 -21 67 -5 9 -76 12 -266 12 l-259 0 -4 -37 -4
-38 -1 38 -2 37 -275 0 -275 0 -6 -27 c-3 -16 -10 -41 -15 -58 -8 -26 -8 -25
-3 10 3 22 7 48 10 58 5 16 -13 17 -286 17 -224 0 -292 -3 -295 -13z m166
-164 c85 -91 162 -176 172 -187 10 -12 44 -47 74 -79 31 -32 54 -60 51 -62 -4
-4 -404 423 -441 471 -42 55 -2 15 144 -143z m1499 153 c-34 -30 -472 -357
-476 -354 -4 4 475 368 485 368 3 0 -1 -6 -9 -14z m1272 -44 c25 -31 94 -114
152 -185 58 -70 106 -132 106 -137 0 -6 5 -10 11 -10 5 0 124 -79 262 -176
l252 -176 6 38 6 39 2 -42 1 -42 48 -4 c41 -4 40 -4 -9 -3 -55 2 -58 4 -308
179 -139 97 -254 177 -257 177 -2 0 -4 -10 -5 -22 -1 -22 -1 -22 -8 2 -4 16
-16 26 -31 29 l-25 4 23 6 c21 5 10 21 -125 184 -141 170 -148 177 -154 150
-6 -26 -7 -25 -8 10 0 20 2 37 7 36 4 0 28 -26 54 -57z m-705 -14 c-2 -13 -4
-3 -4 22 0 25 2 35 4 23 2 -13 2 -33 0 -45z m1440 -25 c-2 -16 -4 -5 -4 22 0
28 2 40 4 28 2 -13 2 -35 0 -50z m707 13 c-3 -21 -8 -35 -11 -32 -2 2 -1 20 3
40 3 21 8 35 11 32 2 -2 1 -20 -3 -40z m-3217 -108 c-2 -24 -4 -7 -4 37 0 44
2 63 4 43 2 -21 2 -57 0 -80z m1751 -58 c0 -14 -6 9 -14 50 -7 41 -12 86 -12
100 0 14 6 -9 14 -50 7 -41 12 -86 12 -100z m-671 98 c-2 -13 -4 -5 -4 17 -1
22 1 32 4 23 2 -10 2 -28 0 -40z m-1688 -27 c-6 -34 -14 -60 -16 -57 -2 2 1
32 8 65 6 34 14 60 16 57 2 -2 -1 -32 -8 -65z m1179 -21 c0 -22 -1 -22 -8 5
-4 17 -8 39 -8 50 0 16 2 15 8 -5 4 -14 8 -36 8 -50z m2611 -44 c-12 -58 -24
-104 -27 -102 -2 3 6 52 19 110 12 58 24 104 27 102 2 -3 -6 -52 -19 -110z
m-662 37 c-2 -16 -4 -5 -4 22 0 28 2 40 4 28 2 -13 2 -35 0 -50z m-1430 -35
c-2 -13 -4 -3 -4 22 0 25 2 35 4 23 2 -13 2 -33 0 -45z m-510 -20 c-3 -7 -5
-2 -5 12 0 14 2 19 5 13 2 -7 2 -19 0 -25z m-1210 -20 c-3 -7 -5 -2 -5 12 0
14 2 19 5 13 2 -7 2 -19 0 -25z m3160 -35 c-2 -16 -4 -5 -4 22 0 28 2 40 4 28
2 -13 2 -35 0 -50z m-1430 -15 c-2 -13 -4 -3 -4 22 0 25 2 35 4 23 2 -13 2
-33 0 -45z m-488 -83 c-1 -11 -7 7 -15 40 -7 33 -13 69 -13 80 1 11 7 -7 15
-40 7 -33 13 -69 13 -80z m1148 88 c-3 -10 -5 -2 -5 17 0 19 2 27 5 18 2 -10
2 -26 0 -35z m-2403 -17 c-3 -21 -8 -35 -11 -32 -2 2 -1 20 3 40 3 21 8 35 11
32 2 -2 1 -20 -3 -40z m2450 -24 l-41 -3 -68 -170 c-37 -94 -69 -168 -71 -166
-2 2 25 76 61 165 36 89 65 164 65 167 0 3 -96 6 -212 7 l-213 2 220 6 c121 3
238 3 260 0 l40 -5 -41 -3z m733 -49 c-2 -16 -4 -5 -4 22 0 28 2 40 4 28 2
-13 2 -35 0 -50z m607 13 c-3 -21 -8 -35 -11 -32 -2 2 -1 20 3 40 3 21 8 35
11 32 2 -2 1 -20 -3 -40z m-1196 27 c-15 -2 -42 -2 -60 0 -18 2 -6 4 27 4 33
0 48 -2 33 -4z m-2611 -45 c-3 -7 -5 -2 -5 12 0 14 2 19 5 13 2 -7 2 -19 0
-25z m588 22 c-16 -4 -39 -8 -50 -8 -16 0 -15 2 5 8 14 4 36 8 50 8 22 0 22
-1 -5 -8z m168 3 c-7 -2 -19 -2 -25 0 -7 3 -2 5 12 5 14 0 19 -2 13 -5z m1002
-48 c-4 -25 -9 -44 -12 -41 -2 2 -1 25 2 51 4 25 9 44 12 41 2 -2 1 -25 -2
-51z m-952 38 c-7 -2 -19 -2 -25 0 -7 3 -2 5 12 5 14 0 19 -2 13 -5z m842 -3
c-11 -5 -27 -9 -35 -9 -9 0 -8 4 5 9 11 5 27 9 35 9 9 0 8 -4 -5 -9z m1035 4
c0 -3 -35 -42 -77 -87 -99 -105 -298 -318 -351 -377 -22 -25 -43 -42 -47 -39
-3 4 11 48 31 98 20 51 38 90 40 88 2 -2 -9 -37 -26 -77 -17 -40 -29 -75 -27
-77 4 -3 114 113 342 360 106 115 115 123 115 111z m-2225 -20 c-33 -7 -69
-13 -80 -12 -27 0 83 26 115 26 14 0 -2 -6 -35 -14z m495 -9 c42 -11 46 -13
15 -9 -22 3 -65 11 -95 19 -42 11 -46 13 -15 9 22 -3 65 -11 95 -19z m-607
-12 c-7 -2 -19 -2 -25 0 -7 3 -2 5 12 5 14 0 19 -2 13 -5z m934 -25 c-3 -7 -5
-2 -5 12 0 14 2 19 5 13 2 -7 2 -19 0 -25z m-984 15 c-7 -2 -21 -2 -30 0 -10
3 -4 5 12 5 17 0 24 -2 18 -5z m782 -3 c27 -7 27 -8 5 -8 -14 0 -36 4 -50 8
-20 6 -21 8 -5 8 11 0 34 -4 50 -8z m1612 -67 c-2 -16 -4 -3 -4 27 0 30 2 43
4 28 2 -16 2 -40 0 -55z m1097 33 c-3 -21 -8 -35 -11 -32 -2 2 -1 20 3 40 3
21 8 35 11 32 2 -2 1 -20 -3 -40z m-3551 27 c-7 -2 -19 -2 -25 0 -7 3 -2 5 12
5 14 0 19 -2 13 -5z m2974 -60 c-2 -16 -4 -5 -4 22 0 28 2 40 4 28 2 -13 2
-35 0 -50z m-3024 50 c-7 -2 -19 -2 -25 0 -7 3 -2 5 12 5 14 0 19 -2 13 -5z
m-68 -13 c-16 -4 -41 -8 -55 -8 -22 0 -22 1 5 8 17 4 41 8 55 8 22 0 22 -1 -5
-8z m-92 -17 c-7 -2 -19 -2 -25 0 -7 3 -2 5 12 5 14 0 19 -2 13 -5z m1714 -25
c-3 -7 -5 -2 -5 12 0 14 2 19 5 13 2 -7 2 -19 0 -25z m2027 -52 c-3 -21 -8
-35 -11 -32 -2 2 -1 20 3 40 3 21 8 35 11 32 2 -2 1 -20 -3 -40z m-2037 -3
c-3 -10 -5 -4 -5 12 0 17 2 24 5 18 2 -7 2 -21 0 -30z m950 -50 c-2 -16 -4 -3
-4 27 0 30 2 43 4 28 2 -16 2 -40 0 -55z m540 5 c-2 -13 -4 -3 -4 22 0 25 2
35 4 23 2 -13 2 -33 0 -45z m-1500 -10 c-3 -7 -5 -2 -5 12 0 14 2 19 5 13 2
-7 2 -19 0 -25z m2696 -15 c-13 -2 -33 -2 -45 0 -13 2 -3 4 22 4 25 0 35 -2
23 -4z m-2706 -40 c-3 -10 -5 -4 -5 12 0 17 2 24 5 18 2 -7 2 -21 0 -30z
m2616 30 c-13 -2 -35 -2 -50 0 -16 2 -5 4 22 4 28 0 40 -2 28 -4z m-100 -10
c-13 -2 -35 -2 -50 0 -16 2 -5 4 22 4 28 0 40 -2 28 -4z m-1556 -80 c-2 -16
-4 -3 -4 27 0 30 2 43 4 28 2 -16 2 -40 0 -55z m1456 70 c-13 -2 -35 -2 -50 0
-16 2 -5 4 22 4 28 0 40 -2 28 -4z m-100 -10 c-13 -2 -33 -2 -45 0 -13 2 -3 4
22 4 25 0 35 -2 23 -4z m-90 -10 c-13 -2 -35 -2 -50 0 -16 2 -5 4 22 4 28 0
40 -2 28 -4z m-98 -8 c-23 -8 -83 -10 -79 -3 3 4 24 8 47 7 23 0 38 -2 32 -4z
m-2138 -37 c-3 -7 -5 -2 -5 12 0 14 2 19 5 13 2 -7 2 -19 0 -25z m1886 15
c-18 -2 -48 -2 -65 0 -18 2 -4 4 32 4 36 0 50 -2 33 -4z m220 0 c-7 -2 -19 -2
-25 0 -7 3 -2 5 12 5 14 0 19 -2 13 -5z m-360 -10 c-18 -2 -48 -2 -65 0 -18 2
-4 4 32 4 36 0 50 -2 33 -4z m507 -18 c42 -11 46 -13 15 -9 -22 3 -65 11 -95
19 -42 11 -46 13 -15 9 22 -3 65 -11 95 -19z m-730 1 c0 -5 -190 -141 -453
-325 -65 -46 -120 -82 -122 -80 -2 2 71 56 161 119 91 63 220 154 287 202 124
89 127 91 127 84z m-1535 -61 c-4 -25 -9 -44 -12 -41 -2 2 -1 25 2 51 4 25 9
44 12 41 2 -2 1 -25 -2 -51z m1579 -95 c3 -25 -3 -7 -14 40 -10 47 -19 92 -18
100 1 22 26 -88 32 -140z m779 133 c-7 -2 -19 -2 -25 0 -7 3 -2 5 12 5 14 0
19 -2 13 -5z m-1386 -70 c-2 -16 -4 -5 -4 22 0 28 2 40 4 28 2 -13 2 -35 0
-50z m1436 60 c-7 -2 -19 -2 -25 0 -7 3 -2 5 12 5 14 0 19 -2 13 -5z m50 -10
c-7 -2 -19 -2 -25 0 -7 3 -2 5 12 5 14 0 19 -2 13 -5z m77 -13 c20 -6 21 -8 5
-8 -11 0 -31 4 -45 8 -20 6 -21 8 -5 8 11 0 31 -4 45 -8z m100 -20 c20 -6 21
-8 5 -8 -11 0 -33 4 -50 8 -27 7 -27 8 -5 8 14 0 36 -4 50 -8z m63 -17 c-7 -2
-19 -2 -25 0 -7 3 -2 5 12 5 14 0 19 -2 13 -5z m-2718 -78 c-4 -25 -9 -44 -12
-41 -2 2 -1 25 2 51 4 25 9 44 12 41 2 -2 1 -25 -2 -51z m982 -32 c-2 -16 -4
-5 -4 22 0 28 2 40 4 28 2 -13 2 -35 0 -50z m-440 -55 c-2 -13 -4 -5 -4 17 -1
22 1 32 4 23 2 -10 2 -28 0 -40z m-562 -23 c-4 -25 -9 -44 -12 -41 -2 2 -1 25
2 51 4 25 9 44 12 41 2 -2 1 -25 -2 -51z m992 -32 c-2 -16 -4 -3 -4 27 0 30 2
43 4 28 2 -16 2 -40 0 -55z m-420 -35 c-2 -13 -4 -3 -4 22 0 25 2 35 4 23 2
-13 2 -33 0 -45z m-590 -20 c-3 -7 -5 -2 -5 12 0 14 2 19 5 13 2 -7 2 -19 0
-25z m600 -70 c-2 -13 -4 -3 -4 22 0 25 2 35 4 23 2 -13 2 -33 0 -45z m-610
15 c-3 -10 -5 -4 -5 12 0 17 2 24 5 18 2 -7 2 -21 0 -30z m2201 10 c-26 -2
-71 -2 -100 0 -29 2 -8 3 47 3 55 0 79 -1 53 -3z m-220 -10 c-26 -2 -71 -2
-100 0 -29 2 -8 3 47 3 55 0 79 -1 53 -3z m-695 -243 c126 -113 243 -213 260
-222 21 -11 26 -17 15 -18 -10 0 -60 37 -110 81 -187 165 -428 383 -428 387 0
8 27 -16 263 -228z m1024 193 c-3 -10 -5 -4 -5 12 0 17 2 24 5 18 2 -7 2 -21
0 -30z m-2320 -5 c-3 -7 -5 -2 -5 12 0 14 2 19 5 13 2 -7 2 -19 0 -25z m630
-50 c-2 -13 -4 -3 -4 22 0 25 2 35 4 23 2 -13 2 -33 0 -45z m400 -10 c-2 -13
-4 -5 -4 17 -1 22 1 32 4 23 2 -10 2 -28 0 -40z m1280 5 c-3 -10 -5 -4 -5 12
0 17 2 24 5 18 2 -7 2 -21 0 -30z m-1985 -201 c174 -97 314 -180 311 -186 -4
-5 1 -7 10 -3 9 3 19 2 22 -3 9 -14 -11 -12 -90 10 -63 18 -50 21 21 4 27 -6
28 -5 9 8 -27 19 -601 338 -609 338 -3 0 -6 -8 -7 -17 -1 -14 -2 -13 -7 3 -6
19 -30 3 -224 -150 -137 -108 -212 -173 -205 -178 7 -5 3 -8 -10 -8 -13 0 -23
3 -22 8 0 4 102 86 226 184 148 115 232 174 242 171 9 -3 159 -85 333 -181z
m-1378 124 c-9 -26 -18 -45 -20 -43 -2 2 3 25 12 51 9 26 18 45 20 43 2 -2 -3
-25 -12 -51z m1693 2 c-2 -13 -4 -5 -4 17 -1 22 1 32 4 23 2 -10 2 -28 0 -40z
m1660 5 c-3 -10 -5 -2 -5 17 0 19 2 27 5 18 2 -10 2 -26 0 -35z m-1260 -25
c-2 -13 -4 -5 -4 17 -1 22 1 32 4 23 2 -10 2 -28 0 -40z m-1029 -43 c0 -16 -2
-15 -8 5 -4 14 -8 34 -8 45 0 16 2 15 8 -5 4 -14 8 -34 8 -45z m2279 8 c-3
-10 -5 -4 -5 12 0 17 2 24 5 18 2 -7 2 -21 0 -30z m-1640 -35 c-2 -13 -4 -3
-4 22 0 25 2 35 4 23 2 -13 2 -33 0 -45z m400 -20 c-2 -13 -4 -3 -4 22 0 25 2
35 4 23 2 -13 2 -33 0 -45z m-2136 21 c-5 -13 -10 -19 -10 -12 -1 15 10 45 15
40 3 -2 0 -15 -5 -28z m3366 -26 c-3 -10 -5 -4 -5 12 0 17 2 24 5 18 2 -7 2
-21 0 -30z m-2249 -38 c0 -16 -2 -15 -8 5 -4 14 -8 34 -8 45 0 16 2 15 8 -5 4
-14 8 -34 8 -45z m-2080 28 c-10 -2 -28 -2 -40 0 -13 2 -5 4 17 4 22 1 32 -1
23 -4z m2709 -55 c-2 -13 -4 -3 -4 22 0 25 2 35 4 23 2 -13 2 -33 0 -45z
m-2624 45 c-13 -2 -33 -2 -45 0 -13 2 -3 4 22 4 25 0 35 -2 23 -4z m760 0
c-13 -2 -33 -2 -45 0 -13 2 -3 4 22 4 25 0 35 -2 23 -4z m-670 -10 c-13 -2
-33 -2 -45 0 -13 2 -3 4 22 4 25 0 35 -2 23 -4z m585 0 c-10 -2 -28 -2 -40 0
-13 2 -5 4 17 4 22 1 32 -1 23 -4z m2349 -45 c-2 -13 -4 -5 -4 17 -1 22 1 32
4 23 2 -10 2 -28 0 -40z m1210 15 c-3 -10 -5 -4 -5 12 0 17 2 24 5 18 2 -7 2
-21 0 -30z m-4054 20 c-13 -2 -33 -2 -45 0 -13 2 -3 4 22 4 25 0 35 -2 23 -4z
m415 0 c-10 -2 -28 -2 -40 0 -13 2 -5 4 17 4 22 1 32 -1 23 -4z m-330 -10
c-10 -2 -28 -2 -40 0 -13 2 -5 4 17 4 22 1 32 -1 23 -4z m250 0 c-10 -2 -28
-2 -40 0 -13 2 -5 4 17 4 22 1 32 -1 23 -4z m1471 -17 c-7 -7 -131 -37 -136
-33 -2 3 22 11 54 20 59 15 90 20 82 13z m136 -20 c28 -8 43 -15 35 -15 -8 0
-37 6 -65 13 -27 8 -43 15 -35 15 8 0 38 -6 65 -13z m2096 -78 c-5 -29 -8 -54
-7 -56 2 -1 38 5 80 14 43 9 80 14 82 11 3 -2 -26 -10 -63 -17 -37 -7 -77 -16
-88 -20 -13 -5 -62 -87 -139 -231 -66 -123 -123 -225 -128 -227 -4 -2 -8 -8
-8 -13 0 -5 -84 -111 -187 -236 -104 -124 -187 -230 -186 -235 2 -4 -2 -8 -7
-8 -6 0 -10 3 -10 8 0 4 86 111 190 237 105 126 185 232 179 234 -8 2 -8 5 -1
10 7 4 -61 93 -164 216 -200 239 -246 297 -219 273 11 -9 106 -120 210 -247
105 -126 193 -229 198 -228 4 1 61 101 126 222 l118 220 -46 6 -46 6 41 1 c23
1 46 8 52 15 5 6 14 39 18 72 4 33 9 52 11 43 3 -9 0 -40 -6 -70z m-1584 10
c-2 -13 -4 -3 -4 22 0 25 2 35 4 23 2 -13 2 -33 0 -45z m-798 48 c-7 -8 -291
-77 -296 -73 -2 3 58 20 134 40 134 34 171 42 162 33z m436 -15 c39 -11 63
-19 55 -20 -8 0 -46 8 -85 18 -38 11 -63 19 -55 20 8 0 47 -8 85 -18z m762
-33 c-2 -13 -4 -5 -4 17 -1 22 1 32 4 23 2 -10 2 -28 0 -40z m1732 38 c-7 -7
-171 -38 -175 -33 -3 2 28 11 68 20 74 15 115 20 107 13z m-2344 -40 c28 -8
43 -15 35 -15 -8 0 -37 6 -65 13 -27 8 -43 15 -35 15 8 0 38 -6 65 -13z m2148
-3 c-7 -2 -19 -2 -25 0 -7 3 -2 5 12 5 14 0 19 -2 13 -5z m-50 -10 c-7 -2 -19
-2 -25 0 -7 3 -2 5 12 5 14 0 19 -2 13 -5z m-50 -10 c-7 -2 -19 -2 -25 0 -7 3
-2 5 12 5 14 0 19 -2 13 -5z m-1426 -65 c-2 -13 -4 -3 -4 22 0 25 2 35 4 23 2
-13 2 -33 0 -45z m467 50 c-4 -7 -74 -97 -156 -200 -81 -102 -148 -189 -148
-192 0 -3 12 -7 28 -7 l27 -1 -28 -7 -28 -6 171 -278 c95 -153 170 -280 168
-282 -2 -2 -80 121 -173 272 l-170 277 -6 -40 -6 -39 -2 47 -1 47 -50 4 -50 4
52 -1 c44 -1 55 3 64 19 6 11 72 98 148 194 76 95 135 175 133 178 -3 3 -98
-32 -212 -77 l-206 -82 31 -54 c60 -107 92 -169 78 -152 -8 9 -36 57 -64 107
-52 96 -62 104 -177 141 -21 6 -36 14 -34 16 2 3 36 -7 74 -21 39 -14 77 -25
84 -25 8 0 109 38 224 84 216 87 242 95 229 74z m139 5 c-18 -2 -48 -2 -65 0
-18 2 -4 4 32 4 36 0 50 -2 33 -4z m770 0 c-7 -2 -19 -2 -25 0 -7 3 -2 5 12 5
14 0 19 -2 13 -5z m-3944 -217 c34 -114 60 -210 58 -212 -4 -4 -127 405 -127
421 0 22 12 -15 69 -209z m3314 207 c-18 -2 -48 -2 -65 0 -18 2 -4 4 32 4 36
0 50 -2 33 -4z m140 -10 c-18 -2 -48 -2 -65 0 -18 2 -4 4 32 4 36 0 50 -2 33
-4z m135 -10 c-15 -2 -42 -2 -60 0 -18 2 -6 4 27 4 33 0 48 -2 33 -4z m160
-88 c0 -16 -2 -15 -8 5 -11 34 -11 60 0 35 5 -11 8 -29 8 -40z m-1171 -17 c-2
-13 -4 -5 -4 17 -1 22 1 32 4 23 2 -10 2 -28 0 -40z m1197 -78 c4 -24 3 -29
-3 -15 -4 11 -11 36 -15 55 -4 24 -3 29 3 15 4 -11 11 -36 15 -55z m-1303 -95
c-56 -64 -99 -120 -96 -126 4 -5 1 -9 -4 -9 -6 0 -11 5 -11 11 0 13 202 250
208 244 2 -2 -41 -56 -97 -120z m1327 -5 c0 -9 -3 -7 -8 5 -5 11 -8 29 -8 40
0 16 2 15 8 -5 4 -14 8 -32 8 -40z m32 -109 c11 -46 19 -85 17 -88 -4 -3 -47
156 -47 173 0 20 11 -10 30 -85z m-4370 49 c20 -6 21 -8 5 -8 -11 0 -31 4 -45
8 -20 6 -21 8 -5 8 11 0 31 -4 45 -8z m63 -17 c-7 -2 -19 -2 -25 0 -7 3 -2 5
12 5 14 0 19 -2 13 -5z m50 -10 c-7 -2 -19 -2 -25 0 -7 3 -2 5 12 5 14 0 19
-2 13 -5z m77 -13 c20 -6 21 -8 5 -8 -11 0 -31 4 -45 8 -20 6 -21 8 -5 8 11 0
31 -4 45 -8z m1245 -40 c-4 -17 -9 -29 -12 -26 -3 2 -2 19 2 36 4 17 9 29 12
26 3 -2 2 -19 -2 -36z m1683 33 c-16 -2 -40 -2 -55 0 -16 2 -3 4 27 4 30 0 43
-2 28 -4z m260 0 c-10 -2 -26 -2 -35 0 -10 3 -2 5 17 5 19 0 27 -2 18 -5z
m-3125 -10 c-7 -2 -19 -2 -25 0 -7 3 -2 5 12 5 14 0 19 -2 13 -5z m2750 0
c-13 -2 -35 -2 -50 0 -16 2 -5 4 22 4 28 0 40 -2 28 -4z m430 0 c-7 -2 -19 -2
-25 0 -7 3 -2 5 12 5 14 0 19 -2 13 -5z m-3130 -10 c-7 -2 -19 -2 -25 0 -7 3
-2 5 12 5 14 0 19 -2 13 -5z m3225 0 c-10 -2 -26 -2 -35 0 -10 3 -2 5 17 5 19
0 27 -2 18 -5z m-3148 -13 c20 -6 21 -8 5 -8 -11 0 -31 4 -45 8 -20 6 -21 8
-5 8 11 0 31 -4 45 -8z m2489 6 c-8 -8 -162 -67 -165 -63 -2 2 31 18 73 35 73
29 102 38 92 28z m729 -3 c-10 -2 -26 -2 -35 0 -10 3 -2 5 17 5 19 0 27 -2 18
-5z m-502 -365 c101 -193 182 -354 180 -355 -2 -2 -78 139 -169 314 -190 367
-212 411 -202 401 4 -4 90 -166 191 -360z m572 355 c-10 -2 -26 -2 -35 0 -10
3 -2 5 17 5 19 0 27 -2 18 -5z m-3225 -10 c-7 -2 -19 -2 -25 0 -7 3 -2 5 12 5
14 0 19 -2 13 -5z m3305 0 c-10 -2 -28 -2 -40 0 -13 2 -5 4 17 4 22 1 32 -1
23 -4z m-3255 -10 c-7 -2 -19 -2 -25 0 -7 3 -2 5 12 5 14 0 19 -2 13 -5z
m3325 0 c-10 -2 -26 -2 -35 0 -10 3 -2 5 17 5 19 0 27 -2 18 -5z m-3248 -13
c20 -6 21 -8 5 -8 -11 0 -31 4 -45 8 -20 6 -21 8 -5 8 11 0 31 -4 45 -8z
m3318 3 c-10 -2 -26 -2 -35 0 -10 3 -2 5 17 5 19 0 27 -2 18 -5z m-2875 -10
c-40 -2 -106 -2 -145 0 -40 1 -8 3 72 3 80 0 112 -2 73 -3z m2945 0 c-10 -2
-26 -2 -35 0 -10 3 -2 5 17 5 19 0 27 -2 18 -5z m126 -29 c26 -9 45 -18 43
-20 -2 -2 -23 3 -47 11 -24 8 -44 14 -45 13 -2 -2 251 -454 283 -506 5 -8 15
16 26 63 10 42 20 74 23 72 2 -3 -5 -39 -15 -81 l-20 -75 92 -4 91 -3 -98 0
c-54 1 -97 -3 -97 -8 0 -5 -69 -80 -153 -165 -361 -368 -466 -476 -463 -478 2
-2 38 4 80 13 43 9 80 14 82 11 3 -2 -35 -12 -85 -22 l-89 -17 237 -216 c317
-289 331 -302 331 -308 0 -8 -45 32 -321 284 l-244 223 -6 -93 -5 -93 -2 104
-2 103 72 77 c40 42 136 141 214 221 324 333 343 355 326 361 -14 6 -14 7 4
10 19 4 15 14 -51 129 -105 183 -225 399 -225 405 0 8 14 6 64 -11z m324 -54
c0 -9 -3 -7 -8 5 -5 11 -8 29 -8 40 0 16 2 15 8 -5 4 -14 8 -32 8 -40z m-1564
-4 c-9 -26 -18 -45 -20 -43 -2 2 3 25 12 51 9 26 18 45 20 43 2 -2 -3 -25 -12
-51z m423 -83 c-2 -27 -3 -5 -3 47 0 52 1 74 3 48 2 -27 2 -69 0 -95z m-1714
100 c-13 -2 -33 -2 -45 0 -13 2 -3 4 22 4 25 0 35 -2 23 -4z m90 -10 c-13 -2
-33 -2 -45 0 -13 2 -3 4 22 4 25 0 35 -2 23 -4z m90 -10 c-13 -2 -33 -2 -45 0
-13 2 -3 4 22 4 25 0 35 -2 23 -4z m85 -10 c-10 -2 -28 -2 -40 0 -13 2 -5 4
17 4 22 1 32 -1 23 -4z m85 -10 c-13 -2 -33 -2 -45 0 -13 2 -3 4 22 4 25 0 35
-2 23 -4z m90 -10 c-13 -2 -33 -2 -45 0 -13 2 -3 4 22 4 25 0 35 -2 23 -4z
m90 -10 c-13 -2 -33 -2 -45 0 -13 2 -3 4 22 4 25 0 35 -2 23 -4z m85 -10 c-10
-2 -28 -2 -40 0 -13 2 -5 4 17 4 22 1 32 -1 23 -4z m85 -10 c-13 -2 -33 -2
-45 0 -13 2 -3 4 22 4 25 0 35 -2 23 -4z m457 -304 c-60 -167 -114 -311 -119
-320 -7 -13 -3 -15 23 -13 29 3 30 3 4 -4 l-27 -7 100 -210 c55 -115 103 -213
107 -217 6 -6 54 44 232 241 14 15 65 71 114 125 49 53 98 106 108 119 l20 22
-29 6 -28 7 31 1 c17 0 34 -2 37 -5 6 -6 -46 -66 -224 -259 -129 -140 -217
-240 -214 -243 2 -2 132 63 289 143 279 143 287 148 273 169 -79 123 -127 215
-120 232 7 18 7 18 13 -2 4 -18 19 -11 154 77 82 54 153 96 157 93 5 -3 9 -12
9 -21 0 -12 -3 -13 -14 -4 -11 9 -44 -8 -160 -84 -81 -53 -144 -99 -142 -103
22 -38 119 -198 120 -199 1 -2 38 78 81 177 43 99 79 179 81 177 2 -2 -31 -85
-75 -184 l-79 -181 117 -138 116 -137 6 49 6 49 0 -57 c0 -32 -3 -58 -6 -58
-3 1 -41 42 -84 93 -42 51 -97 114 -120 141 l-43 49 -307 -156 c-168 -87 -315
-157 -326 -157 -11 0 -131 31 -266 69 -135 38 -256 68 -270 65 -20 -3 -396
-147 -484 -185 -25 -10 -41 -4 -25 10 81 73 578 481 587 481 7 1 -26 14 -73
29 -47 16 -80 29 -74 30 6 1 37 -8 69 -19 32 -11 62 -20 66 -20 5 0 10 57 12
128 l3 127 2 -132 2 -133 43 -2 42 -1 -41 -4 c-36 -4 -43 -8 -53 -36 -10 -31
-10 -31 -5 -3 6 35 26 49 -186 -129 -85 -72 -201 -168 -257 -215 -56 -47 -98
-86 -94 -88 8 -3 423 157 468 180 12 6 20 15 17 20 -6 10 37 200 44 193 3 -2
-6 -45 -18 -95 -12 -50 -21 -92 -19 -94 2 -2 69 59 147 135 l144 139 -39 2
-38 1 38 4 c20 2 37 6 37 9 0 5 -87 217 -191 464 l-48 115 -3 -145 -4 -145 -1
165 c-2 98 1 159 6 150 8 -13 213 -504 243 -580 8 -22 25 17 125 293 64 175
118 316 120 314 2 -2 -46 -141 -107 -308z m-492 256 c-8 -8 -500 -186 -504
-182 -4 3 483 185 500 186 5 1 7 -1 4 -4z m1059 -188 c-2 -23 -3 -1 -3 48 0
50 1 68 3 42 2 -26 2 -67 0 -90z m1120 91 c-3 -8 -6 -5 -6 6 -1 11 2 17 5 13
3 -3 4 -12 1 -19z m-10 -40 c-3 -8 -6 -5 -6 6 -1 11 2 17 5 13 3 -3 4 -12 1
-19z m-10 -40 c-3 -8 -6 -5 -6 6 -1 11 2 17 5 13 3 -3 4 -12 1 -19z m-2678
-12 c-8 -9 -172 -67 -176 -63 -2 2 34 18 79 35 80 29 106 37 97 28z m-626 -43
c-7 -2 -19 -2 -25 0 -7 3 -2 5 12 5 14 0 19 -2 13 -5z m87 -13 c20 -6 21 -8 5
-8 -11 0 -33 4 -50 8 -27 7 -27 8 -5 8 14 0 36 -4 50 -8z m2127 -137 c-2 -27
-3 -5 -3 47 0 52 1 74 3 48 2 -27 2 -69 0 -95z m-2064 120 c-7 -2 -19 -2 -25
0 -7 3 -2 5 12 5 14 0 19 -2 13 -5z m272 -4 c-11 -5 -33 -14 -50 -20 -28 -10
-29 -12 -10 -20 18 -9 18 -9 -2 -5 -13 2 -23 3 -23 1 0 -1 14 -35 30 -75 17
-40 28 -75 26 -77 -2 -2 -16 28 -32 67 -15 39 -31 73 -34 75 -4 2 -98 -140
-210 -315 -112 -176 -207 -320 -212 -320 -4 0 -7 35 -6 78 l2 77 5 -70 6 -70
193 304 c107 168 196 311 199 318 3 7 11 13 19 13 8 0 14 4 14 9 0 5 19 16 43
24 46 17 73 21 42 6z m-222 -6 c-7 -2 -19 -2 -25 0 -7 3 -2 5 12 5 14 0 19 -2
13 -5z m50 -10 c-7 -2 -19 -2 -25 0 -7 3 -2 5 12 5 14 0 19 -2 13 -5z m50 -10
c-7 -2 -19 -2 -25 0 -7 3 -2 5 12 5 14 0 19 -2 13 -5z m2350 -10 c-13 -2 -35
-2 -50 0 -16 2 -5 4 22 4 28 0 40 -2 28 -4z m100 -10 c-13 -2 -33 -2 -45 0
-13 2 -3 4 22 4 25 0 35 -2 23 -4z m-2206 -51 c62 -20 111 -38 108 -40 -4 -4
-257 77 -265 85 -6 7 20 -1 157 -45z m2316 41 c-13 -2 -35 -2 -50 0 -16 2 -5
4 22 4 28 0 40 -2 28 -4z m100 -10 c-13 -2 -35 -2 -50 0 -16 2 -5 4 22 4 28 0
40 -2 28 -4z m110 -10 c-13 -2 -35 -2 -50 0 -16 2 -5 4 22 4 28 0 40 -2 28 -4z
m-516 -80 c-2 -16 -4 -3 -4 27 0 30 2 43 4 28 2 -16 2 -40 0 -55z m626 70
c-13 -2 -35 -2 -50 0 -16 2 -5 4 22 4 28 0 40 -2 28 -4z m-2398 -87 c55 -19
95 -35 90 -35 -6 -1 -56 14 -110 33 -55 19 -95 35 -90 35 6 1 56 -14 110 -33z
m2564 -201 c0 -5 -18 42 -40 105 -21 63 -39 119 -38 125 0 5 18 -42 40 -105
21 -63 39 -119 38 -125z m-3422 82 c-2 -23 -3 -1 -3 48 0 50 1 68 3 42 2 -26
2 -67 0 -90z m2640 26 c-2 -16 -4 -5 -4 22 0 28 2 40 4 28 2 -13 2 -35 0 -50z
m-2031 -255 l129 -313 184 -207 c101 -115 187 -208 191 -208 4 0 13 27 20 60
7 33 15 58 18 56 2 -3 -1 -28 -8 -56 -7 -28 -10 -53 -7 -56 2 -3 149 98 325
225 259 186 328 231 362 236 25 4 40 3 36 -3 -3 -5 15 -15 39 -22 25 -7 43
-15 41 -17 -3 -3 -28 3 -56 12 -28 9 -53 15 -56 12 -4 -4 319 -573 335 -590 4
-4 92 46 197 111 104 65 217 135 252 156 34 20 62 41 62 45 0 3 -88 36 -195
71 -107 35 -192 66 -190 68 5 5 376 -118 392 -130 6 -5 22 -11 35 -13 14 -3
141 -52 282 -109 142 -58 264 -102 272 -99 8 3 18 -5 24 -19 9 -19 2 -46 -40
-158 -27 -74 -50 -138 -50 -142 0 -4 21 -9 48 -11 l47 -3 -51 -2 -51 -2 19
-56 c10 -31 17 -58 14 -61 -2 -2 -11 21 -20 51 -9 31 -18 56 -20 56 -2 0 -68
-74 -146 -165 -79 -91 -145 -163 -147 -161 -3 2 61 79 142 171 l146 168 -29
31 c-16 17 -109 121 -207 231 -98 110 -190 212 -203 228 -14 15 -23 27 -20 27
5 0 400 -434 457 -502 4 -4 31 58 60 138 29 80 52 147 50 149 -12 11 -538 219
-560 221 -22 2 -25 -2 -22 -25 2 -21 1 -19 -7 7 -6 17 -12 32 -15 32 -2 0
-100 -60 -217 -133 -317 -199 -295 -187 -369 -185 l-64 2 57 3 56 4 -171 299
c-148 257 -173 295 -178 272 l-6 -27 -4 28 c-4 28 -9 25 -309 -190 -168 -120
-316 -226 -329 -235 l-23 -16 43 -11 c42 -10 42 -10 7 -6 -21 2 -38 2 -38 1 0
-2 124 -108 275 -236 151 -128 275 -236 275 -241 0 -5 101 71 226 167 124 97
227 175 229 173 2 -3 -95 -81 -215 -174 l-219 -170 32 -18 c28 -16 19 -16 -22
1 -11 4 -13 -1 -8 -24 14 -73 15 -102 0 -44 -8 36 -17 67 -19 69 -2 2 -31 -19
-66 -46 -177 -140 -671 -514 -674 -511 -3 3 279 221 644 499 41 31 74 60 74
65 -1 5 -20 15 -44 21 l-43 13 40 -6 40 -5 -25 24 c-14 14 -135 118 -270 232
-135 114 -246 214 -248 221 -2 8 -8 12 -13 8 -11 -6 -153 25 -146 33 3 2 31
-3 63 -11 55 -14 81 -13 58 2 -5 4 -79 86 -163 182 -187 213 -194 220 -223
221 l-23 2 23 4 c12 2 22 6 22 7 0 2 -56 139 -125 306 -69 167 -125 305 -125
307 0 17 24 -39 136 -309z m469 278 c55 -19 95 -35 90 -35 -6 -1 -56 14 -110
33 -55 19 -95 35 -90 35 6 1 56 -14 110 -33z m1123 -13 c-10 -2 -28 -2 -40 0
-13 2 -5 4 17 4 22 1 32 -1 23 -4z m-80 -10 c-10 -2 -28 -2 -40 0 -13 2 -5 4
17 4 22 1 32 -1 23 -4z m-85 -10 c-13 -2 -33 -2 -45 0 -13 2 -3 4 22 4 25 0
35 -2 23 -4z m-85 -10 c-10 -2 -28 -2 -40 0 -13 2 -5 4 17 4 22 1 32 -1 23 -4z
m-80 -10 c-10 -2 -28 -2 -40 0 -13 2 -5 4 17 4 22 1 32 -1 23 -4z m-80 -10
c-10 -2 -28 -2 -40 0 -13 2 -5 4 17 4 22 1 32 -1 23 -4z m-80 -10 c-10 -2 -28
-2 -40 0 -13 2 -5 4 17 4 22 1 32 -1 23 -4z m939 -60 c-2 -16 -4 -5 -4 22 0
28 2 40 4 28 2 -13 2 -35 0 -50z m-2660 -106 c-2 -23 -3 -1 -3 48 0 50 1 68 3
42 2 -26 2 -67 0 -90z m2670 -4 c-2 -16 -4 -3 -4 27 0 30 2 43 4 28 2 -16 2
-40 0 -55z m1198 -38 c-27 -7 -59 -13 -70 -13 -11 0 3 6 30 13 28 7 59 13 70
13 11 0 -2 -6 -30 -13z m-1188 -72 c-2 -16 -4 -3 -4 27 0 30 2 43 4 28 2 -16
2 -40 0 -55z m1068 47 c-16 -4 -39 -8 -50 -8 -16 0 -15 2 5 8 14 4 36 8 50 8
22 0 22 -1 -5 -8z m-82 -17 c-7 -2 -19 -2 -25 0 -7 3 -2 5 12 5 14 0 19 -2 13
-5z m-50 -10 c-7 -2 -19 -2 -25 0 -7 3 -2 5 12 5 14 0 19 -2 13 -5z m-50 -10
c-7 -2 -19 -2 -25 0 -7 3 -2 5 12 5 14 0 19 -2 13 -5z m-150 -30 c-7 -2 -19
-2 -25 0 -7 3 -2 5 12 5 14 0 19 -2 13 -5z m-50 -10 c-7 -2 -19 -2 -25 0 -7 3
-2 5 12 5 14 0 19 -2 13 -5z m-44 -7 c-7 -7 -221 -48 -225 -43 -3 2 39 13 93
25 97 20 140 26 132 18z m150 -90 c-12 -48 -23 -85 -26 -83 -2 3 6 43 18 91
12 48 23 85 26 83 2 -3 -6 -43 -18 -91z m-2210 0 c-7 -31 -14 -54 -16 -52 -3
3 1 30 8 60 7 31 14 54 16 52 3 -3 -1 -30 -8 -60z m1796 34 c-16 -4 -39 -8
-50 -8 -16 0 -15 2 5 8 14 4 36 8 50 8 22 0 22 -1 -5 -8z m-3012 -21 l22 -1
-22 -6 c-19 -6 -8 -16 75 -68 452 -283 552 -347 549 -351 -6 -6 -671 417 -676
429 -2 7 3 9 13 5 10 -4 27 -7 39 -8z m2930 4 c-7 -2 -19 -2 -25 0 -7 3 -2 5
12 5 14 0 19 -2 13 -5z m-3014 -97 c-12 -48 -23 -85 -26 -83 -2 3 6 43 18 91
12 48 23 85 26 83 2 -3 -6 -43 -18 -91z m2964 87 c-7 -2 -19 -2 -25 0 -7 3 -2
5 12 5 14 0 19 -2 13 -5z m-2810 -10 c-7 -2 -21 -2 -30 0 -10 3 -4 5 12 5 17
0 24 -2 18 -5z m92 -13 c27 -7 27 -8 5 -8 -14 0 -38 4 -55 8 -27 7 -27 8 -5 8
14 0 39 -4 55 -8z m78 -17 c-7 -2 -21 -2 -30 0 -10 3 -4 5 12 5 17 0 24 -2 18
-5z m92 -13 c27 -7 27 -8 5 -8 -14 0 -38 4 -55 8 -27 7 -27 8 -5 8 14 0 39 -4
55 -8z m2193 3 c-43 -2 -113 -2 -155 0 -43 1 -8 3 77 3 85 0 120 -2 78 -3z
m-395 -10 c-46 -2 -120 -2 -165 0 -46 1 -9 3 82 3 91 0 128 -2 83 -3z m-1688
-13 c27 -7 27 -8 5 -8 -14 0 -38 4 -55 8 -27 7 -27 8 -5 8 14 0 39 -4 55 -8z
m719 -169 c-21 -89 -39 -159 -42 -157 -2 3 13 77 34 165 21 88 40 159 42 156
2 -2 -13 -76 -34 -164z m-609 149 c27 -7 27 -8 5 -8 -14 0 -38 4 -55 8 -27 7
-27 8 -5 8 14 0 39 -4 55 -8z m78 -17 c-7 -2 -21 -2 -30 0 -10 3 -4 5 12 5 17
0 24 -2 18 -5z m2762 -33 c-9 -41 -17 -33 -9 9 4 17 9 30 11 27 3 -2 2 -19 -2
-36z m-1395 3 c30 -11 31 -12 6 -8 -16 4 -43 13 -60 20 -23 11 -25 13 -6 8 14
-3 41 -12 60 -20z m-1303 -60 c-3 -10 -5 -2 -5 17 0 19 2 27 5 18 2 -10 2 -26
0 -35z m1060 -15 c-2 -13 -4 -3 -4 22 0 25 2 35 4 23 2 -13 2 -33 0 -45z m353
41 c10 -6 4 -7 -15 -3 -16 4 -37 11 -45 15 -10 6 -4 7 15 3 17 -4 37 -11 45
-15z m-2231 -63 c-6 -26 -13 -45 -16 -43 -2 3 1 26 8 51 6 26 13 45 16 43 2
-3 -1 -26 -8 -51z m2315 38 c26 -9 45 -18 43 -20 -2 -2 -28 5 -58 15 -30 11
-49 20 -43 20 6 1 32 -6 58 -15z m1183 -6 c-3 -8 -6 -5 -6 6 -1 11 2 17 5 13
3 -3 4 -12 1 -19z m-2690 -80 c-2 -13 -4 -3 -4 22 0 25 2 35 4 23 2 -13 2 -33
0 -45z m2662 -32 c-12 -48 -23 -85 -26 -83 -2 3 6 43 18 91 12 48 23 85 26 83
2 -3 -6 -43 -18 -91z m-1602 22 c-2 -13 -4 -5 -4 17 -1 22 1 32 4 23 2 -10 2
-28 0 -40z m920 -40 c-2 -13 -4 -5 -4 17 -1 22 1 32 4 23 2 -10 2 -28 0 -40z
m-2810 20 c-3 -8 -6 -5 -6 6 -1 11 2 17 5 13 3 -3 4 -12 1 -19z m820 -50 c-2
-13 -4 -5 -4 17 -1 22 1 32 4 23 2 -10 2 -28 0 -40z m1060 -20 c-2 -13 -4 -3
-4 22 0 25 2 35 4 23 2 -13 2 -33 0 -45z m2132 27 c-3 -2 -117 -51 -254 -108
-138 -58 -268 -112 -290 -122 l-40 -16 25 -14 c26 -15 24 -20 -4 -9 -29 11
-37 40 -25 89 6 25 14 44 16 41 2 -2 -1 -23 -7 -46 -6 -23 -9 -44 -7 -46 2 -2
132 49 288 115 261 110 311 129 298 116z m-4634 -15 c-9 -14 -317 -295 -335
-304 -8 -5 -6 1 5 12 25 26 329 301 333 302 2 0 0 -4 -3 -10z m708 3 c-13 -2
-35 -2 -50 0 -16 2 -5 4 22 4 28 0 40 -2 28 -4z m100 -10 c-13 -2 -35 -2 -50
0 -16 2 -5 4 22 4 28 0 40 -2 28 -4z m100 -10 c-13 -2 -35 -2 -50 0 -16 2 -5
4 22 4 28 0 40 -2 28 -4z m100 -10 c-13 -2 -35 -2 -50 0 -16 2 -5 4 22 4 28 0
40 -2 28 -4z m478 -53 c28 -7 48 -14 45 -17 -2 -2 -21 0 -42 6 -21 6 -39 9
-41 7 -7 -7 209 -386 217 -381 5 3 46 65 91 139 46 74 85 133 87 132 7 -7
-167 -281 -180 -283 -17 -4 -229 379 -232 420 -2 18 -1 22 1 10 3 -16 16 -24
54 -33z m-378 43 c-13 -2 -35 -2 -50 0 -16 2 -5 4 22 4 28 0 40 -2 28 -4z
m100 -10 c-13 -2 -35 -2 -50 0 -16 2 -5 4 22 4 28 0 40 -2 28 -4z m1284 -60
c-2 -16 -4 -5 -4 22 0 28 2 40 4 28 2 -13 2 -35 0 -50z m1587 28 c-4 -17 -9
-30 -11 -27 -3 2 -2 19 2 36 9 41 17 33 9 -9z m-2771 22 c-13 -2 -35 -2 -50 0
-16 2 -5 4 22 4 28 0 40 -2 28 -4z m107 -3 c0 -5 -19 -9 -42 -9 l-43 2 35 7
c19 4 38 8 43 9 4 0 7 -3 7 -9z m2077 -230 c-3 -17 -48 189 -46 211 1 8 12
-33 25 -91 13 -58 23 -112 21 -120z m-1920 184 c-3 -3 -12 -4 -19 -1 -8 3 -5
6 6 6 11 1 17 -2 13 -5z m98 -25 c14 -6 9 -7 -15 -3 -19 4 -44 11 -55 15 -14
6 -9 7 15 3 19 -4 44 -11 55 -15z m812 -61 c-2 -13 -4 -5 -4 17 -1 22 1 32 4
23 2 -10 2 -28 0 -40z m-1070 10 c-3 -7 -5 -2 -5 12 0 14 2 19 5 13 2 -7 2
-19 0 -25z m-621 -236 c52 -124 92 -227 90 -229 -3 -3 -195 450 -204 481 -12
43 35 -61 114 -252z m603 139 c-7 -39 -14 -69 -17 -67 -2 3 2 37 9 75 7 39 14
69 17 67 2 -3 -2 -37 -9 -75z m604 72 c-7 -2 -21 -2 -30 0 -10 3 -4 5 12 5 17
0 24 -2 18 -5z m60 -10 c-7 -2 -21 -2 -30 0 -10 3 -4 5 12 5 17 0 24 -2 18 -5z
m60 -10 c-7 -2 -21 -2 -30 0 -10 3 -4 5 12 5 17 0 24 -2 18 -5z m60 -10 c-7
-2 -21 -2 -30 0 -10 3 -4 5 12 5 17 0 24 -2 18 -5z m309 -44 c16 -10 -15 -16
-42 -8 -24 7 -24 7 -2 8 17 1 22 7 23 29 2 27 2 27 6 2 3 -14 9 -28 15 -31z
m-249 34 c-7 -2 -21 -2 -30 0 -10 3 -4 5 12 5 17 0 24 -2 18 -5z m117 -17 c36
-8 56 -14 45 -14 -11 -1 -49 5 -85 12 -36 8 -56 14 -45 14 11 1 49 -5 85 -12z
m1980 -89 c281 -117 304 -127 298 -132 -2 -3 -22 4 -44 14 -21 10 -133 58
-249 106 -185 77 -276 118 -225 102 8 -3 107 -43 220 -90z m-1737 56 c-18 -2
-48 -2 -65 0 -18 2 -4 4 32 4 36 0 50 -2 33 -4z m135 -10 c-15 -2 -42 -2 -60
0 -18 2 -6 4 27 4 33 0 48 -2 33 -4z m796 -148 c4 -31 2 -27 -9 15 -8 30 -16
73 -19 95 -4 31 -2 27 9 -15 8 -30 16 -73 19 -95z m-1067 58 c-2 -16 -4 -3 -4
27 0 30 2 43 4 28 2 -16 2 -40 0 -55z m781 -189 c334 -262 361 -284 350 -284
-3 0 -158 120 -345 266 l-338 266 -6 -64 -6 -63 -1 68 c-1 43 2 67 9 67 6 0
158 -115 337 -256z m-1871 189 c-3 -10 -5 -4 -5 12 0 17 2 24 5 18 2 -7 2 -21
0 -30z m-10 -55 c-3 -7 -5 -2 -5 12 0 14 2 19 5 13 2 -7 2 -19 0 -25z m1090
-65 c-2 -16 -4 -3 -4 27 0 30 2 43 4 28 2 -16 2 -40 0 -55z m-1102 -8 c-4 -25
-9 -44 -12 -41 -2 2 -1 25 2 51 4 25 9 44 12 41 2 -2 1 -25 -2 -51z m1562 -42
c-2 -21 -4 -6 -4 32 0 39 2 55 4 38 2 -18 2 -50 0 -70z m-1210 71 c-3 -3 -12
-4 -19 -1 -8 3 -5 6 6 6 11 1 17 -2 13 -5z m2866 -1 c-18 -2 -48 -2 -65 0 -18
2 -4 4 32 4 36 0 50 -2 33 -4z m-2658 -47 c94 -24 163 -44 155 -45 -8 0 -91
19 -185 43 -93 24 -163 44 -155 45 8 0 92 -19 185 -43z m1632 12 c-3 -7 -5 -2
-5 12 0 14 2 19 5 13 2 -7 2 -19 0 -25z m886 25 c-18 -2 -48 -2 -65 0 -18 2
-4 4 32 4 36 0 50 -2 33 -4z m-22 -372 c-193 -308 -235 -369 -253 -368 -12 1
-134 79 -272 173 -169 116 -253 169 -258 161 -5 -8 -8 -6 -8 6 0 9 3 17 8 17
4 0 121 -79 261 -175 140 -96 257 -173 259 -170 2 2 -28 101 -68 220 -40 119
-70 218 -68 220 2 2 37 -97 78 -220 41 -124 77 -225 80 -225 3 0 109 166 235
369 127 203 232 368 233 366 2 -2 -100 -170 -227 -374z m-128 362 c-18 -2 -48
-2 -65 0 -18 2 -4 4 32 4 36 0 50 -2 33 -4z m-140 -10 c-18 -2 -48 -2 -65 0
-18 2 -4 4 32 4 36 0 50 -2 33 -4z m-565 -138 c0 -11 -6 3 -13 30 -7 28 -13
59 -13 70 0 11 6 -2 13 -30 7 -27 13 -59 13 -70z m-1131 38 c-2 -16 -4 -5 -4
22 0 28 2 40 4 28 2 -13 2 -35 0 -50z m-1110 15 c-3 -7 -5 -2 -5 12 0 14 2 19
5 13 2 -7 2 -19 0 -25z m803 12 c20 -6 21 -8 5 -8 -11 0 -29 3 -40 8 -25 11 1
11 35 0z m57 -16 c-3 -3 -12 -4 -19 -1 -8 3 -5 6 6 6 11 1 17 -2 13 -5z m40
-10 c-3 -3 -12 -4 -19 -1 -8 3 -5 6 6 6 11 1 17 -2 13 -5z m690 -91 c-2 -21
-4 -6 -4 32 0 39 2 55 4 38 2 -18 2 -50 0 -70z m-1600 50 c-3 -10 -5 -4 -5 12
0 17 2 24 5 18 2 -7 2 -21 0 -30z m978 27 c25 -11 -1 -11 -35 0 -20 6 -21 8
-5 8 11 0 29 -3 40 -8z m-2045 -43 c0 -10 -293 -291 -544 -522 -51 -48 -56
-43 -6 6 62 60 527 497 539 506 3 2 -18 1 -45 -2 -43 -4 -45 -3 -11 4 20 4 40
11 44 14 11 11 23 8 23 -6z m3734 -39 c8 -29 13 -54 11 -56 -2 -2 -11 20 -19
49 -18 58 -18 59 -12 59 3 0 11 -23 20 -52z m-407 0 c-3 -7 -5 -2 -5 12 0 14
2 19 5 13 2 -7 2 -19 0 -25z m-3472 11 c-22 -4 -51 -8 -65 -7 -35 1 34 15 75
16 25 0 23 -2 -10 -9z m173 -44 c0 -16 -2 -15 -8 5 -11 34 -11 60 0 35 5 -11
8 -29 8 -40z m79 49 c-3 -3 -12 -4 -19 -1 -8 3 -5 6 6 6 11 1 17 -2 13 -5z
m169 -40 c79 -20 143 -39 141 -41 -5 -4 -289 66 -296 73 -8 8 9 4 155 -32z
m-528 19 c-10 -2 -26 -2 -35 0 -10 3 -2 5 17 5 19 0 27 -2 18 -5z m-65 -10
c-7 -2 -21 -2 -30 0 -10 3 -4 5 12 5 17 0 24 -2 18 -5z m-88 -14 c-22 -4 -51
-8 -65 -7 -35 1 34 15 75 16 25 0 23 -2 -10 -9z m-107 -16 c-10 -2 -26 -2 -35
0 -10 3 -2 5 17 5 19 0 27 -2 18 -5z m560 -73 c0 -9 -3 -7 -8 5 -5 11 -8 29
-8 40 0 16 2 15 8 -5 4 -14 8 -32 8 -40z m409 44 c-3 -3 -12 -4 -19 -1 -8 3
-5 6 6 6 11 1 17 -2 13 -5z m1760 -66 c-3 -7 -5 -2 -5 12 0 14 2 19 5 13 2 -7
2 -19 0 -25z m-2138 -98 c0 -8 -7 5 -15 30 -7 25 -13 52 -13 60 0 8 7 -5 15
-30 7 -25 13 -52 13 -60z m724 83 c-7 -2 -21 -2 -30 0 -10 3 -4 5 12 5 17 0
24 -2 18 -5z m65 -10 c-10 -2 -26 -2 -35 0 -10 3 -2 5 17 5 19 0 27 -2 18 -5z
m1380 -108 c0 -11 -6 3 -13 30 -7 28 -13 59 -13 70 0 11 6 -2 13 -30 7 -27 13
-59 13 -70z m-1310 98 c-10 -2 -26 -2 -35 0 -10 3 -2 5 17 5 19 0 27 -2 18 -5z
m2461 -168 c-1 -11 -7 7 -15 40 -7 33 -13 69 -13 80 1 11 7 -7 15 -40 7 -33
13 -69 13 -80z m-3312 63 c-3 -8 -6 -5 -6 6 -1 11 2 17 5 13 3 -3 4 -12 1 -19z
m21 -78 c0 -9 -3 -7 -8 5 -5 11 -8 29 -8 40 0 16 2 15 8 -5 4 -14 8 -32 8 -40z
m2149 28 c-3 -7 -5 -2 -5 12 0 14 2 19 5 13 2 -7 2 -19 0 -25z m357 -32 c-9
-26 -18 -45 -20 -43 -2 2 3 25 12 51 9 26 18 45 20 43 2 -2 -3 -25 -12 -51z
m-326 -101 c0 -11 -6 3 -13 30 -7 28 -13 59 -13 70 0 11 6 -2 13 -30 7 -27 13
-59 13 -70z m1119 63 c-3 -7 -5 -2 -5 12 0 14 2 19 5 13 2 -7 2 -19 0 -25z
m-3290 0 c-3 -8 -6 -5 -6 6 -1 11 2 17 5 13 3 -3 4 -12 1 -19z m21 -73 c0 -16
-2 -15 -8 5 -11 34 -11 60 0 35 5 -11 8 -29 8 -40z m3279 23 c-3 -7 -5 -2 -5
12 0 14 2 19 5 13 2 -7 2 -19 0 -25z m10 -50 c-3 -7 -5 -2 -5 12 0 14 2 19 5
13 2 -7 2 -19 0 -25z m-1130 -20 c-3 -7 -5 -2 -5 12 0 14 2 19 5 13 2 -7 2
-19 0 -25z"/>
<path d="M2515 1865 c-101 -97 -145 -146 -135 -149 32 -11 481 -136 490 -136
4 0 -37 97 -93 215 -56 118 -104 214 -107 214 -3 0 -72 -65 -155 -144z"/>
<path d="M3448 4892 c-48 -59 -113 -138 -145 -177 -55 -67 -50 -63 122 84 99
85 191 165 205 177 l25 24 -60 -1 -60 0 -87 -107z"/>
<path d="M1171 4608 c-1 -10 -96 -147 -212 -304 -142 -193 -207 -289 -199
-294 8 -5 8 -9 2 -11 -11 -4 312 -284 328 -284 5 0 122 85 260 190 164 124
245 192 237 197 -8 5 -6 8 6 8 12 0 -52 80 -196 243 -118 134 -217 250 -220
258 -4 11 -6 10 -6 -3z m387 -515 c-10 -2 -28 -2 -40 0 -13 2 -5 4 17 4 22 1
32 -1 23 -4z m-85 -10 c-13 -2 -33 -2 -45 0 -13 2 -3 4 22 4 25 0 35 -2 23 -4z
m-90 -10 c-13 -2 -33 -2 -45 0 -13 2 -3 4 22 4 25 0 35 -2 23 -4z m-90 -10
c-13 -2 -33 -2 -45 0 -13 2 -3 4 22 4 25 0 35 -2 23 -4z m-90 -10 c-13 -2 -33
-2 -45 0 -13 2 -3 4 22 4 25 0 35 -2 23 -4z m-90 -10 c-13 -2 -33 -2 -45 0
-13 2 -3 4 22 4 25 0 35 -2 23 -4z m-90 -10 c-13 -2 -33 -2 -45 0 -13 2 -3 4
22 4 25 0 35 -2 23 -4z m-90 -10 c-13 -2 -33 -2 -45 0 -13 2 -3 4 22 4 25 0
35 -2 23 -4z m-90 -10 c-13 -2 -33 -2 -45 0 -13 2 -3 4 22 4 25 0 35 -2 23 -4z"/>
<path d="M225 4376 l-220 -84 -3 -138 -3 -138 38 34 c80 76 418 410 413 409
-3 0 -104 -37 -225 -83z"/>
<path d="M1353 3897 c-139 -106 -252 -194 -252 -197 0 -3 115 -88 254 -190
140 -102 255 -188 255 -192 0 -5 -7 -8 -16 -8 -8 0 -12 4 -9 10 3 5 0 8 -7 5
-7 -3 -132 33 -278 79 -145 47 -266 83 -268 81 -6 -6 242 -645 250 -642 3 1
77 99 163 217 85 118 160 214 165 213 4 -1 9 178 10 407 0 226 -3 410 -7 409
-4 0 -121 -87 -260 -192z"/>
<path d="M360 2445 c-289 -289 -341 -345 -320 -346 24 -1 24 -1 3 -7 -17 -5
63 -46 335 -169 216 -97 358 -168 360 -177 2 -8 -78 -116 -177 -240 l-181
-226 285 0 c157 0 285 2 285 4 0 2 -45 106 -101 231 -55 125 -98 229 -95 232
3 3 67 -16 142 -41 76 -25 139 -44 142 -42 2 3 -63 116 -145 253 l-148 248 -6
-70 -5 -70 -2 82 c-2 68 -5 82 -19 86 -17 4 -17 5 0 6 13 1 17 11 19 39 1 36
1 36 5 5 2 -18 7 -33 10 -33 5 0 266 141 316 171 l28 17 -108 113 c-59 63
-143 150 -185 194 l-78 80 -2 -100 -2 -100 -5 103 -6 102 -345 -345z m367 -77
c-2 -35 -3 -7 -3 62 0 69 1 97 3 63 2 -35 2 -91 0 -125z m-49 -185 c-10 -2
-26 -2 -35 0 -10 3 -2 5 17 5 19 0 27 -2 18 -5z m-93 -14 c-22 -4 -53 -7 -70
-7 -26 1 -24 2 10 8 22 4 54 7 70 7 25 1 23 -1 -10 -8z m-117 -16 c-10 -2 -26
-2 -35 0 -10 3 -2 5 17 5 19 0 27 -2 18 -5z m-93 -14 c-22 -4 -53 -7 -70 -7
-26 1 -24 2 10 8 22 4 54 7 70 7 25 1 23 -1 -10 -8z m-117 -16 c-10 -2 -26 -2
-35 0 -10 3 -2 5 17 5 19 0 27 -2 18 -5z m-70 -10 c-10 -2 -26 -2 -35 0 -10 3
-2 5 17 5 19 0 27 -2 18 -5z m-70 -10 c-10 -2 -26 -2 -35 0 -10 3 -2 5 17 5
19 0 27 -2 18 -5z m629 -275 c-2 -35 -3 -9 -3 57 0 66 1 94 3 63 2 -32 2 -86
0 -120z"/>
<path d="M0 1783 l0 -304 22 7 c36 11 45 11 21 0 -13 -5 -23 -12 -23 -15 0 -3
79 -46 175 -96 153 -79 176 -88 188 -75 50 53 339 425 342 438 2 13 -59 45
-284 146 -157 72 -321 146 -363 167 l-78 36 0 -304z m719 -47 c-8 -8 -362
-136 -366 -133 -3 4 345 135 361 136 5 1 7 -1 5 -3z m-379 -140 c0 -6 -93 -37
-97 -32 -2 2 15 11 39 19 47 17 58 19 58 13z m-111 -41 c-9 -8 -141 -56 -145
-52 -3 2 26 16 63 30 67 25 91 32 82 22z"/>
<path d="M1316 392 c3 -9 -35 -101 -84 -202 l-90 -185 170 -3 c94 -1 173 -1
175 2 2 2 -32 87 -76 189 -45 102 -81 190 -81 196 0 5 -4 12 -9 15 -5 4 -7 -2
-5 -12z"/>
</g>
</svg>
